<svg xmlns="http://www.w3.org/2000/svg" width="1200" height="720" viewBox="0 0 1200 720"><rect width="1200" height="720" fill="#f4f7fb"/><rect width="230" height="720" fill="#fff"/><rect x="0" y="0" width="1200" height="64" fill="#fff" stroke="#e5eaf1"/><rect x="20" y="16" width="32" height="32" rx="8" fill="#1d4ed8"/><text x="30" y="39" font-family="Segoe UI" font-size="20" font-weight="700" fill="#fff">P</text><text x="64" y="39" font-family="Segoe UI" font-size="18" font-weight="700" fill="#1d4ed8">PriorityDesk</text><rect x="270" y="15" width="470" height="35" rx="7" fill="#f8fafc" stroke="#dce3ec"/><text x="290" y="38" font-family="Segoe UI" font-size="13" fill="#8491a3">Search tasks, notes, contacts, projects…</text><rect x="1060" y="14" width="116" height="37" rx="7" fill="#1d4ed8"/><text x="1081" y="38" font-family="Segoe UI" font-size="13" font-weight="600" fill="#fff">+ Quick add</text><g font-family="Segoe UI" font-size="14" fill="#425168"><rect x="10" y="84" width="210" height="42" rx="7" fill="#e8efff"/><text x="52" y="110" font-weight="700" fill="#1d4ed8">Dashboard</text><text x="52" y="157">All Tasks</text><text x="52" y="201">Today</text><text x="52" y="245">Upcoming</text><text x="52" y="289">Projects</text><text x="52" y="333">People</text><text x="52" y="377">Completed</text><text x="52" y="421">Trash</text><text x="52" y="465">Logs and Diagnostics</text><text x="52" y="509">Settings</text></g><text x="270" y="112" font-family="Segoe UI" font-size="30" font-weight="700" fill="#132238">Dashboard</text><text x="270" y="136" font-family="Segoe UI" font-size="14" fill="#6b788c">A calm overview of what needs your attention.</text><g font-family="Segoe UI"><g transform="translate(270 166)"><rect width="205" height="100" rx="10" fill="#fff" stroke="#e1e7ef"/><text x="18" y="29" font-size="13" fill="#728096">Overdue</text><text x="18" y="70" font-size="32" font-weight="700" fill="#162338">3</text><circle cx="165" cy="42" r="23" fill="#fee2e2"/><text x="158" y="50" font-size="22" fill="#b91c1c">!</text></g><g transform="translate(490 166)"><rect width="205" height="100" rx="10" fill="#fff" stroke="#e1e7ef"/><text x="18" y="29" font-size="13" fill="#728096">Due today</text><text x="18" y="70" font-size="32" font-weight="700" fill="#162338">5</text><circle cx="165" cy="42" r="23" fill="#ffedd5"/></g><g transform="translate(710 166)"><rect width="205" height="100" rx="10" fill="#fff" stroke="#e1e7ef"/><text x="18" y="29" font-size="13" fill="#728096">Blocked</text><text x="18" y="70" font-size="32" font-weight="700" fill="#162338">2</text><circle cx="165" cy="42" r="23" fill="#f1f5f9"/></g><g transform="translate(930 166)"><rect width="205" height="100" rx="10" fill="#fff" stroke="#e1e7ef"/><text x="18" y="29" font-size="13" fill="#728096">Active tasks</text><text x="18" y="70" font-size="32" font-weight="700" fill="#162338">24</text><circle cx="165" cy="42" r="23" fill="#dbeafe"/></g></g><rect x="270" y="290" width="620" height="380" rx="10" fill="#fff" stroke="#e1e7ef"/><text x="292" y="325" font-family="Segoe UI" font-size="18" font-weight="700" fill="#162338">Needs attention</text><text x="292" y="347" font-family="Segoe UI" font-size="12" fill="#728096">Ranked by deterministic urgency</text><g font-family="Segoe UI"><g transform="translate(290 380)"><rect width="4" height="64" fill="#991b1b"/><text x="18" y="24" font-size="14" font-weight="700" fill="#162338">Renew building insurance</text><text x="18" y="45" font-size="12" fill="#728096">Overdue • In progress</text><rect x="450" y="22" width="110" height="6" rx="3" fill="#e5e7eb"/><rect x="450" y="22" width="38" height="6" rx="3" fill="#dc2626"/></g><g transform="translate(290 460)"><rect width="4" height="64" fill="#dc2626"/><text x="18" y="24" font-size="14" font-weight="700" fill="#162338">Approve installation quotation</text><text x="18" y="45" font-size="12" fill="#728096">Critical • Due today</text><rect x="450" y="22" width="110" height="6" rx="3" fill="#e5e7eb"/><rect x="450" y="22" width="72" height="6" rx="3" fill="#2563eb"/></g><g transform="translate(290 540)"><rect width="4" height="64" fill="#64748b"/><text x="18" y="24" font-size="14" font-weight="700" fill="#162338">Schedule electrician</text><text x="18" y="45" font-size="12" fill="#728096">Blocked by Approve quotation</text><rect x="450" y="22" width="110" height="6" rx="3" fill="#e5e7eb"/><rect x="450" y="22" width="22" height="6" rx="3" fill="#64748b"/></g></g><rect x="910" y="290" width="225" height="170" rx="10" fill="#fff" stroke="#e1e7ef"/><text x="932" y="325" font-family="Segoe UI" font-size="18" font-weight="700" fill="#162338">Overall workload</text><text x="932" y="390" font-family="Segoe UI" font-size="42" font-weight="700" fill="#1d4ed8">63%</text><rect x="932" y="415" width="170" height="8" rx="4" fill="#e5e7eb"/><rect x="932" y="415" width="107" height="8" rx="4" fill="#1d4ed8"/><rect x="910" y="480" width="225" height="190" rx="10" fill="#fff" stroke="#e1e7ef"/><text x="932" y="515" font-family="Segoe UI" font-size="18" font-weight="700" fill="#162338">7-day workload</text><g fill="#3b82f6"><rect x="935" y="603" width="15" height="35" rx="3"/><rect x="960" y="573" width="15" height="65" rx="3"/><rect x="985" y="613" width="15" height="25" rx="3"/><rect x="1010" y="543" width="15" height="95" rx="3"/><rect x="1035" y="593" width="15" height="45" rx="3"/><rect x="1060" y="623" width="15" height="15" rx="3"/><rect x="1085" y="583" width="15" height="55" rx="3"/></g></svg>
